<svg width="211" height="94" viewBox="0 0 211 94" fill="none" xmlns="http://www.w3.org/2000/svg">
<rect x="0.5" y="0.5" width="210" height="93" rx="46.5" fill="url(#paint0_linear)"/>
<rect x="0.5" y="0.5" width="210" height="93" rx="46.5" fill="url(#paint1_linear)" fill-opacity="0.2"/>
<rect x="0.5" y="0.5" width="210" height="93" rx="46.5" stroke="#FFE81C"/>
<path d="M38.736 53.192C37.5733 53.192 36.5227 52.9413 35.584 52.44C34.656 51.9387 33.9253 51.2507 33.392 50.376C32.8693 49.4907 32.608 48.4987 32.608 47.4C32.608 46.3013 32.8693 45.3147 33.392 44.44C33.9253 43.5547 34.656 42.8613 35.584 42.36C36.5227 41.8587 37.5733 41.608 38.736 41.608C39.8987 41.608 40.944 41.8587 41.872 42.36C42.8 42.8613 43.5307 43.5547 44.064 44.44C44.5973 45.3147 44.864 46.3013 44.864 47.4C44.864 48.4987 44.5973 49.4907 44.064 50.376C43.5307 51.2507 42.8 51.9387 41.872 52.44C40.944 52.9413 39.8987 53.192 38.736 53.192ZM38.736 50.984C39.3973 50.984 39.9947 50.8347 40.528 50.536C41.0613 50.2267 41.4773 49.8 41.776 49.256C42.0853 48.712 42.24 48.0933 42.24 47.4C42.24 46.7067 42.0853 46.088 41.776 45.544C41.4773 45 41.0613 44.5787 40.528 44.28C39.9947 43.9707 39.3973 43.816 38.736 43.816C38.0747 43.816 37.4773 43.9707 36.944 44.28C36.4107 44.5787 35.9893 45 35.68 45.544C35.3813 46.088 35.232 46.7067 35.232 47.4C35.232 48.0933 35.3813 48.712 35.68 49.256C35.9893 49.8 36.4107 50.2267 36.944 50.536C37.4773 50.8347 38.0747 50.984 38.736 50.984ZM50.7648 53.128C49.8474 53.128 49.0208 52.9413 48.2848 52.568C47.5594 52.184 46.9888 51.656 46.5728 50.984C46.1674 50.312 45.9648 49.5493 45.9648 48.696C45.9648 47.8427 46.1674 47.08 46.5728 46.408C46.9888 45.736 47.5594 45.2133 48.2848 44.84C49.0208 44.456 49.8474 44.264 50.7648 44.264C51.6714 44.264 52.4608 44.456 53.1328 44.84C53.8154 45.2133 54.3114 45.752 54.6208 46.456L52.6848 47.496C52.2368 46.7067 51.5914 46.312 50.7488 46.312C50.0981 46.312 49.5594 46.5253 49.1328 46.952C48.7061 47.3787 48.4928 47.96 48.4928 48.696C48.4928 49.432 48.7061 50.0133 49.1328 50.44C49.5594 50.8667 50.0981 51.08 50.7488 51.08C51.6021 51.08 52.2474 50.6853 52.6848 49.896L54.6208 50.952C54.3114 51.6347 53.8154 52.168 53.1328 52.552C52.4608 52.936 51.6714 53.128 50.7648 53.128ZM63.3383 46.44H60.4263V53H57.9463V46.44H55.0343V44.392H63.3383V46.44ZM68.0128 44.264C69.3461 44.264 70.3701 44.584 71.0848 45.224C71.7994 45.8533 72.1568 46.808 72.1568 48.088V53H69.8208V51.928C69.3514 52.728 68.4768 53.128 67.1968 53.128C66.5354 53.128 65.9594 53.016 65.4688 52.792C64.9888 52.568 64.6208 52.2587 64.3648 51.864C64.1088 51.4693 63.9808 51.0213 63.9808 50.52C63.9808 49.72 64.2794 49.0907 64.8768 48.632C65.4848 48.1733 66.4181 47.944 67.6768 47.944H69.6608C69.6608 47.4 69.4954 46.984 69.1648 46.696C68.8341 46.3973 68.3381 46.248 67.6768 46.248C67.2181 46.248 66.7648 46.3227 66.3168 46.472C65.8794 46.6107 65.5061 46.8027 65.1968 47.048L64.3008 45.304C64.7701 44.9733 65.3301 44.7173 65.9808 44.536C66.6421 44.3547 67.3194 44.264 68.0128 44.264ZM67.8208 51.448C68.2474 51.448 68.6261 51.352 68.9568 51.16C69.2874 50.9573 69.5221 50.664 69.6608 50.28V49.4H67.9488C66.9248 49.4 66.4128 49.736 66.4128 50.408C66.4128 50.728 66.5354 50.984 66.7808 51.176C67.0368 51.3573 67.3834 51.448 67.8208 51.448ZM80.901 48.504C81.9143 48.8453 82.421 49.528 82.421 50.552C82.421 51.3307 82.1277 51.9333 81.541 52.36C80.9543 52.7867 80.0797 53 78.917 53H74.325V44.392H78.725C79.8023 44.392 80.645 44.5893 81.253 44.984C81.861 45.368 82.165 45.912 82.165 46.616C82.165 47.0427 82.053 47.4213 81.829 47.752C81.6157 48.072 81.3063 48.3227 80.901 48.504ZM76.613 47.928H78.501C79.3757 47.928 79.813 47.6187 79.813 47C79.813 46.392 79.3757 46.088 78.501 46.088H76.613V47.928ZM78.709 51.304C79.6263 51.304 80.085 50.9893 80.085 50.36C80.085 50.0293 79.9783 49.7893 79.765 49.64C79.5517 49.48 79.2157 49.4 78.757 49.4H76.613V51.304H78.709ZM84.2781 44.392H86.7581V49.512L90.9501 44.392H93.2381V53H90.7581V47.88L86.5821 53H84.2781V44.392ZM102.87 46.44H99.9575V53H97.4775V46.44H94.5655V44.392H102.87V46.44ZM108.856 47.144C109.976 47.1547 110.835 47.4107 111.432 47.912C112.029 48.4027 112.328 49.1013 112.328 50.008C112.328 50.9573 111.992 51.6987 111.32 52.232C110.659 52.7547 109.725 53.016 108.52 53.016L104.2 53V44.392H106.68V47.144H108.856ZM108.296 51.24C108.776 51.2507 109.144 51.1493 109.4 50.936C109.656 50.7227 109.784 50.4027 109.784 49.976C109.784 49.56 109.656 49.256 109.4 49.064C109.155 48.872 108.787 48.7707 108.296 48.76L106.68 48.744V51.24H108.296ZM124.003 48.52C124.515 48.68 124.909 48.9253 125.187 49.256C125.475 49.5867 125.619 49.9813 125.619 50.44C125.619 50.984 125.432 51.464 125.059 51.88C124.685 52.2853 124.173 52.6 123.523 52.824C122.872 53.048 122.136 53.16 121.315 53.16C120.643 53.16 119.981 53.0907 119.331 52.952C118.68 52.8133 118.077 52.6053 117.523 52.328L118.195 50.584C119.101 51.0213 120.104 51.24 121.203 51.24C121.789 51.24 122.248 51.1547 122.579 50.984C122.92 50.8027 123.091 50.552 123.091 50.232C123.091 49.9547 122.973 49.7467 122.739 49.608C122.504 49.4587 122.163 49.384 121.715 49.384H119.955V47.832H121.491C121.928 47.832 122.264 47.7627 122.499 47.624C122.733 47.4853 122.851 47.2827 122.851 47.016C122.851 46.7387 122.701 46.5253 122.403 46.376C122.115 46.2267 121.699 46.152 121.155 46.152C120.323 46.152 119.416 46.3493 118.435 46.744L117.827 45.016C119.021 44.4933 120.184 44.232 121.315 44.232C122.093 44.232 122.787 44.328 123.395 44.52C124.013 44.712 124.499 44.9947 124.851 45.368C125.203 45.7307 125.379 46.1573 125.379 46.648C125.379 47.0533 125.256 47.4213 125.011 47.752C124.765 48.072 124.429 48.328 124.003 48.52ZM130.778 44.264C132.112 44.264 133.136 44.584 133.85 45.224C134.565 45.8533 134.922 46.808 134.922 48.088V53H132.586V51.928C132.117 52.728 131.242 53.128 129.962 53.128C129.301 53.128 128.725 53.016 128.234 52.792C127.754 52.568 127.386 52.2587 127.13 51.864C126.874 51.4693 126.746 51.0213 126.746 50.52C126.746 49.72 127.045 49.0907 127.642 48.632C128.25 48.1733 129.184 47.944 130.442 47.944H132.426C132.426 47.4 132.261 46.984 131.93 46.696C131.6 46.3973 131.104 46.248 130.442 46.248C129.984 46.248 129.53 46.3227 129.082 46.472C128.645 46.6107 128.272 46.8027 127.962 47.048L127.066 45.304C127.536 44.9733 128.096 44.7173 128.746 44.536C129.408 44.3547 130.085 44.264 130.778 44.264ZM130.586 51.448C131.013 51.448 131.392 51.352 131.722 51.16C132.053 50.9573 132.288 50.664 132.426 50.28V49.4H130.714C129.69 49.4 129.178 49.736 129.178 50.408C129.178 50.728 129.301 50.984 129.546 51.176C129.802 51.3573 130.149 51.448 130.586 51.448ZM144.739 44.392V53H142.515V50.536H140.675L139.043 53H136.387L138.355 50.184C137.757 49.9493 137.299 49.6133 136.979 49.176C136.669 48.728 136.515 48.1893 136.515 47.56C136.515 46.5467 136.877 45.768 137.603 45.224C138.339 44.6693 139.347 44.392 140.627 44.392H144.739ZM140.675 46.424C140.141 46.424 139.736 46.52 139.459 46.712C139.192 46.904 139.059 47.2133 139.059 47.64C139.059 48.0667 139.187 48.3813 139.443 48.584C139.709 48.776 140.109 48.872 140.643 48.872H142.515V46.424H140.675ZM153.714 48.504C154.727 48.8453 155.234 49.528 155.234 50.552C155.234 51.3307 154.94 51.9333 154.354 52.36C153.767 52.7867 152.892 53 151.73 53H147.138V44.392H151.538C152.615 44.392 153.458 44.5893 154.066 44.984C154.674 45.368 154.977 45.912 154.977 46.616C154.977 47.0427 154.866 47.4213 154.642 47.752C154.428 48.072 154.119 48.3227 153.714 48.504ZM149.426 47.928H151.314C152.188 47.928 152.626 47.6187 152.626 47C152.626 46.392 152.188 46.088 151.314 46.088H149.426V47.928ZM151.522 51.304C152.439 51.304 152.898 50.9893 152.898 50.36C152.898 50.0293 152.791 49.7893 152.578 49.64C152.364 49.48 152.028 49.4 151.57 49.4H149.426V51.304H151.522ZM160.883 49.736H159.587V53H157.091V44.392H159.587V47.736H160.931L163.267 44.392H165.923L162.915 48.52L166.131 53H163.187L160.883 49.736ZM175.496 44.392L171.608 53.528C171.213 54.52 170.723 55.2187 170.136 55.624C169.56 56.0293 168.861 56.232 168.04 56.232C167.592 56.232 167.149 56.1627 166.712 56.024C166.275 55.8853 165.917 55.6933 165.64 55.448L166.552 53.672C166.744 53.8427 166.963 53.976 167.208 54.072C167.464 54.168 167.715 54.216 167.96 54.216C168.301 54.216 168.579 54.1307 168.792 53.96C169.005 53.8 169.197 53.528 169.368 53.144L169.4 53.064L165.672 44.392H168.248L170.664 50.232L173.096 44.392H175.496Z" fill="black"/>
<defs>
<linearGradient id="paint0_linear" x1="105.5" y1="0" x2="105.5" y2="94" gradientUnits="userSpaceOnUse">
<stop stop-color="#CBE18C"/>
<stop offset="1" stop-color="#E8EED5" stop-opacity="0"/>
</linearGradient>
<linearGradient id="paint1_linear" x1="105.5" y1="0" x2="105.5" y2="94" gradientUnits="userSpaceOnUse">
<stop offset="0.0208333" stop-color="#ECEF6D"/>
<stop offset="0.354167" stop-color="#CFD23A"/>
<stop offset="0.84375" stop-color="#DFE311" stop-opacity="0"/>
<stop offset="0.984375" stop-color="#D0D50C" stop-opacity="0"/>
</linearGradient>
</defs>
</svg>
