<svg width="137" height="29" viewBox="0 0 137 29" fill="none" xmlns="http://www.w3.org/2000/svg">
<path d="M0.628 28H5.488V17.92H7.288C9.328 17.92 10.948 17.308 12.148 16.084C13.348 14.86 13.948 13.252 13.948 11.26V7.66C13.948 5.656 13.348 4.048 12.148 2.836C10.948 1.612 9.328 0.999998 7.288 0.999998H0.628V28ZM5.488 13.06V5.86H7.288C7.864 5.86 8.308 6.028 8.62 6.364C8.932 6.688 9.088 7.12 9.088 7.66V11.26C9.088 11.8 8.932 12.238 8.62 12.574C8.308 12.898 7.864 13.06 7.288 13.06H5.488ZM17.5382 28H22.3982V19.36H25.2782V28H30.1382V0.999998H25.2782V14.5H22.3982V0.999998H17.5382V28ZM41.6615 28.576C43.7015 28.576 45.3215 27.964 46.5215 26.74C47.7215 25.516 48.3215 23.908 48.3215 21.916V7.084C48.3215 5.08 47.7215 3.472 46.5215 2.26C45.3215 1.036 43.7015 0.423999 41.6615 0.423999C39.6335 0.423999 38.0135 1.036 36.8015 2.26C35.6015 3.472 35.0015 5.08 35.0015 7.084V21.916C35.0015 23.908 35.6015 25.516 36.8015 26.74C38.0135 27.964 39.6335 28.576 41.6615 28.576ZM41.6615 23.716C41.0855 23.716 40.6415 23.554 40.3295 23.23C40.0175 22.894 39.8615 22.456 39.8615 21.916V7.084C39.8615 6.544 40.0175 6.112 40.3295 5.788C40.6415 5.452 41.0855 5.284 41.6615 5.284C42.2375 5.284 42.6815 5.452 42.9935 5.788C43.3055 6.112 43.4615 6.544 43.4615 7.084V21.916C43.4615 22.456 43.3055 22.894 42.9935 23.23C42.6815 23.554 42.2375 23.716 41.6615 23.716ZM54.8786 28H59.7386V5.86H63.6986V0.999998H50.9186V5.86H54.8786V28ZM72.9506 28.576C74.9906 28.576 76.6106 27.964 77.8106 26.74C79.0106 25.516 79.6106 23.908 79.6106 21.916V7.084C79.6106 5.08 79.0106 3.472 77.8106 2.26C76.6106 1.036 74.9906 0.423999 72.9506 0.423999C70.9226 0.423999 69.3026 1.036 68.0906 2.26C66.8906 3.472 66.2906 5.08 66.2906 7.084V21.916C66.2906 23.908 66.8906 25.516 68.0906 26.74C69.3026 27.964 70.9226 28.576 72.9506 28.576ZM72.9506 23.716C72.3746 23.716 71.9306 23.554 71.6186 23.23C71.3066 22.894 71.1506 22.456 71.1506 21.916V7.084C71.1506 6.544 71.3066 6.112 71.6186 5.788C71.9306 5.452 72.3746 5.284 72.9506 5.284C73.5266 5.284 73.9706 5.452 74.2826 5.788C74.5946 6.112 74.7506 6.544 74.7506 7.084V21.916C74.7506 22.456 74.5946 22.894 74.2826 23.23C73.9706 23.554 73.5266 23.716 72.9506 23.716ZM97.9841 0.999998H93.1241V28H103.564V23.14H97.9841V0.999998ZM104.642 28H109.61L110.258 23.788H114.434L115.046 28H120.014L115.01 0.999998H109.754L104.642 28ZM110.978 18.928L112.382 9.73L113.714 18.928H110.978ZM123.183 28H130.203C132.243 28 133.863 27.388 135.063 26.164C136.263 24.94 136.863 23.332 136.863 21.34V19C136.863 18.1 136.731 17.272 136.467 16.516C136.215 15.76 135.855 15.106 135.387 14.554C136.131 13.438 136.503 12.1 136.503 10.54V7.66C136.503 5.656 135.903 4.048 134.703 2.836C133.503 1.612 131.883 0.999998 129.843 0.999998H123.183V28ZM128.043 12.34V5.86H129.843C130.419 5.86 130.863 6.028 131.175 6.364C131.487 6.688 131.643 7.12 131.643 7.66V10.54C131.643 11.08 131.487 11.518 131.175 11.854C130.863 12.178 130.419 12.34 129.843 12.34H128.043ZM128.043 23.14V17.2H130.203C130.779 17.2 131.223 17.368 131.535 17.704C131.847 18.028 132.003 18.46 132.003 19V21.34C132.003 21.88 131.847 22.318 131.535 22.654C131.223 22.978 130.779 23.14 130.203 23.14H128.043Z" fill="black"/>
</svg>
